{"title":"Alejandro Sanz - Un Zombie A La Intemperie - 1080p","uid":11739916,"size":121793318,"categoryP":"video","categoryS":"music_videos","magnet":"?xt=urn:btih:479442681da4872ef609971e92ec58a22d294469&amp;dn=Alejandro+Sanz+-+Un+Zombie+A+La+Intemperie+-+1080p&amp;tr=udp%3A%2F%2Ftracker.openbittorrent.com%3A80&amp;tr=udp%3A%2F%2Fopen.demonii.com%3A1337&amp;tr=udp%3A%2F%2Ftracker.coppersurfer.tk%3A6969&amp;tr=udp%3A%2F%2Fexodus.desync.com%3A6969","seeders":8,"leechers":0,"uploader":"MusicVideos-HQ","files":1,"time":1425745414,"description":"Capturas: http://imgur.com/lBBkRE0\n\nGeneral\nComplete name                  : C:UsersEliasVideosvid3AlejandroSanz-UnZombieALaIntemperie-musicvideos-hq.net.mp4\nFormat                         : MPEG-4\nFormat profile                 : Base Media\nCodec ID                       : isom\nFile size                      : 116 MiB\nDuration                       : 5mn 27s\nOverall bit rate               : 2 971 Kbps\nWriting application            : Lavf55.33.100\n\nVideo\nID                             : 1\nFormat                         : AVC\nFormat/Info                    : Advanced Video Codec\nFormat profile                 : &lt;a class=&quot;__cf_email__&quot; href=&quot;/cdn-cgi/l/email-protection&quot; data-cfemail=&quot;347c5d535c7478001a04&quot;&gt;[email&amp;#160;protected]&lt;/a&gt;&lt;script cf-hash='f9e31' type=&quot;text/javascript&quot;&gt;\n/* &lt;![CDATA[ */!function(){try{var t=&quot;currentScript&quot;in document?document.currentScript:function(){for(var t=document.getElementsByTagName(&quot;script&quot;),e=t.length;e--;)if(t[e].getAttribute(&quot;cf-hash&quot;))return t[e]}();if(t&amp;&amp;t.previousSibling){var e,r,n,i,c=t.previousSibling,a=c.getAttribute(&quot;data-cfemail&quot;);if(a){for(e=&quot;&quot;,r=parseInt(a.substr(0,2),16),n=2;a.length-n;n+=2)i=parseInt(a.substr(n,2),16)^r,e+=String.fromCharCode(i);e=document.createTextNode(e),c.parentNode.replaceChild(e,c)}}}catch(u){}}();/* ]]&gt; */&lt;/script&gt;\nFormat settings, CABAC         : Yes\nFormat settings, ReFrames      : 2 frames\nCodec ID                       : avc1\nCodec ID/Info                  : Advanced Video Coding\nDuration                       : 5mn 27s\nDuration_FirstFrame            : -40ms\nBit rate                       : 2 712 Kbps\nWidth                          : 1 920 pixels\nHeight                         : 1 080 pixels\nDisplay aspect ratio           : 16:9\nFrame rate mode                : Variable\nFrame rate                     : 25.000 fps\nMinimum frame rate             : 25.000 fps\nMaximum frame rate             : 25.014 fps\nColor space                    : YUV\nChroma subsampling             : 4:2:0\nBit depth                      : 8 bits\nScan type                      : Progressive\nBits/(Pixel*Frame)             : 0.052\nStream size                    : 106 MiB (91%)\n\nAudio\nID                             : 2\nFormat                         : AAC\nFormat/Info                    : Advanced Audio Codec\nFormat profile                 : LC\nCodec ID                       : 40\nDuration                       : 5mn 27s\nBit rate mode                  : Constant\nBit rate                       : 254 Kbps\nChannel(s)                     : 2 channels\nChannel positions              : Front: L R\nSampling rate                  : 44.1 KHz\nCompression mode               : Lossy\nStream size                    : 9.91 MiB (9%)","torrent":{"xt":"urn:btih:479442681da4872ef609971e92ec58a22d294469","amp;dn":"Alejandro+Sanz+-+Un+Zombie+A+La+Intemperie+-+1080p","amp;tr":["udp%3A%2F%2Ftracker.openbittorrent.com%3A80","udp%3A%2F%2Fopen.demonii.com%3A1337","udp%3A%2F%2Ftracker.coppersurfer.tk%3A6969","udp%3A%2F%2Fexodus.desync.com%3A6969"],"infoHash":"479442681da4872ef609971e92ec58a22d294469","infoHashBuffer":{"type":"Buffer","data":[71,148,66,104,29,164,135,46,246,9,151,30,146,236,88,162,45,41,68,105]},"announce":[],"urlList":[]}}